<svg width="12" height="12" viewBox="0 0 12 12" fill="none" xmlns="http://www.w3.org/2000/svg">
<path d="M3.1875 0.75V2.0625M9.3125 0.75V2.0625M1 9.9375V3.375C1 3.0269 1.13828 2.69306 1.38442 2.44692C1.63056 2.20078 1.9644 2.0625 2.3125 2.0625H10.1875C10.5356 2.0625 10.8694 2.20078 11.1156 2.44692C11.3617 2.69306 11.5 3.0269 11.5 3.375V9.9375M1 9.9375C1 10.2856 1.13828 10.6194 1.38442 10.8656C1.63056 11.1117 1.9644 11.25 2.3125 11.25H10.1875C10.5356 11.25 10.8694 11.1117 11.1156 10.8656C11.3617 10.6194 11.5 10.2856 11.5 9.9375M1 9.9375V5.5625C1 5.2144 1.13828 4.88056 1.38442 4.63442C1.63056 4.38828 1.9644 4.25 2.3125 4.25H10.1875C10.5356 4.25 10.8694 4.38828 11.1156 4.63442C11.3617 4.88056 11.5 5.2144 11.5 5.5625V9.9375" stroke="#98A1B2" stroke-width="0.875" stroke-linecap="round" stroke-linejoin="round"/>
</svg>
