<svg width="12" height="12" viewBox="0 0 12 12" fill="none" xmlns="http://www.w3.org/2000/svg">
<path d="M5.75 2.5V6H8.375M11 6C11 6.68944 10.8642 7.37213 10.6004 8.00909C10.3365 8.64605 9.94982 9.2248 9.46231 9.71231C8.9748 10.1998 8.39605 10.5865 7.75909 10.8504C7.12213 11.1142 6.43944 11.25 5.75 11.25C5.06056 11.25 4.37787 11.1142 3.74091 10.8504C3.10395 10.5865 2.5252 10.1998 2.03769 9.71231C1.55018 9.2248 1.16347 8.64605 0.899632 8.00909C0.635795 7.37213 0.5 6.68944 0.5 6C0.5 4.60761 1.05312 3.27226 2.03769 2.28769C3.02226 1.30312 4.35761 0.75 5.75 0.75C7.14239 0.75 8.47774 1.30312 9.46231 2.28769C10.4469 3.27226 11 4.60761 11 6Z" stroke="#98A1B2" stroke-width="0.875" stroke-linecap="round" stroke-linejoin="round"/>
</svg>
